# This file uses centimeters as units for non-parametric coordinates.

mtllib V_Sign.mtl
g default
v -293.190948 59.270348 0.000000
v -293.190948 80.000000 0.000000
v -293.190948 100.729652 -27.639542
v -293.190948 100.729652 -13.819771
v -298.962677 100.729652 -27.639544
v -298.962677 100.729652 -13.819772
v -298.962677 59.270348 0.000000
v -298.962677 80.099060 0.000000
v -293.190948 100.729652 27.639544
v -293.190948 100.729652 13.819772
v -298.962677 100.729652 27.639542
v -298.962677 100.729652 13.819771
v -298.962677 100.729652 15.201748
v -298.962677 78.016190 0.000000
v -298.962677 100.729652 -15.201749
v -298.962677 100.729652 26.395767
v -298.962677 61.144928 0.000000
v -298.962677 100.729652 -26.395767
v -293.960480 101.724060 -27.137020
v -298.193085 101.724060 -27.137020
v -298.193115 101.724060 -24.385658
v -293.960541 101.724060 -24.385658
v -298.193146 101.724060 -17.183937
v -293.960541 101.724060 -17.183937
v -298.193176 101.724060 -14.378132
v -293.960571 101.724060 -14.378132
v -293.960480 101.724060 27.137020
v -293.960510 101.724060 24.385658
v -298.193085 101.724060 24.385658
v -298.193115 101.724060 27.137020
v -293.960571 101.724060 17.183937
v -298.193176 101.724060 17.183937
v -293.960541 101.724060 14.378132
v -298.193146 101.724060 14.378132
v -294.176849 61.880154 0.000000
v -294.176880 100.154007 25.861990
v -294.176849 78.111481 0.000000
v -294.176849 100.154007 15.041111
v -294.176849 100.154007 -25.861988
v -294.176849 100.154007 -15.041111
v -293.190948 78.358429 0.000000
v -293.264252 78.073616 0.000000
v -293.428955 77.971573 0.000000
v -293.425201 100.592880 15.163584
v -293.308105 100.661270 15.057579
v -293.190948 100.729652 14.951576
v -293.279022 100.843430 15.428543
v -293.302887 100.745796 15.301010
v -293.220917 100.847626 15.144691
v -293.400879 100.607086 -15.167545
v -293.328217 100.794189 -15.370649
v -293.339630 100.921768 -15.584675
v -293.190948 100.729652 -14.958467
v -293.295929 100.668373 -15.063005
v -293.243988 100.909210 -15.217302
v -293.404144 100.605179 26.280338
v -293.357056 100.769287 26.238937
v -293.339630 100.921768 26.007450
v -293.190948 100.729652 26.646622
v -293.297577 100.667419 26.463484
v -293.299103 100.869415 26.272291
v -293.429077 100.590614 -26.266834
v -293.310028 100.660149 -26.459652
v -293.190979 100.729652 -26.652466
v -293.278107 100.842270 -26.168144
v -293.334778 100.740677 -26.296761
v -293.253326 100.811028 -26.368286
v -293.190948 60.789043 0.000000
v -293.237518 61.080135 0.000000
v -293.368469 61.270016 0.000000
v -293.259979 100.756203 15.159917
v -293.269470 100.795624 -15.205313
v -293.311584 100.762970 26.352346
v -293.282013 100.741302 -26.389935
vt 0.099588 0.189112
vt 0.298890 0.105390
vt 0.301260 0.135619
vt 0.138920 0.212319
vt 0.310643 0.103281
vt 0.828264 0.109016
vt 0.303967 0.694005
vt 0.311890 0.115696
vt 0.271791 0.720627
vt 0.283713 0.316870
vt 0.357106 0.239557
vt 0.402999 0.591150
vt 0.264330 0.048587
vt 0.026424 0.982035
vt 0.812751 0.856958
vt 0.786630 0.819536
vt 0.894230 0.629734
vt 0.925003 0.627216
vt 0.924469 0.614793
vt 0.912311 0.616028
vt 0.783932 0.595768
vt 0.671780 0.681864
vt 0.801796 0.876213
vt 0.816267 0.619149
vt 0.719955 0.718074
vt 0.694822 0.678332
vt 0.787257 0.610393
vt 0.392117 0.602453
vt 0.798912 0.598774
vt 0.350898 0.225083
vt 0.243889 0.271700
vt 0.327952 0.211435
vt 0.342524 0.239040
vt 0.285215 0.293509
vt 0.769045 0.850598
vt 0.060770 0.945416
vt 0.242194 0.752142
vt 0.671827 0.714588
vt 0.109123 0.232444
vt 0.250991 0.319131
vt 0.268204 0.307846
vt 0.265156 0.303386
vt 0.259438 0.299922
vt 0.103286 0.213392
vt 0.791525 0.863686
vt 0.789890 0.856640
vt 0.787951 0.852292
vt 0.688082 0.703247
vt 0.681562 0.702396
vt 0.785934 0.859097
vt 0.099685 0.216938
vt 0.262872 0.308218
vt 0.685234 0.698822
vt 0.099824 0.212122
vt 0.249624 0.744267
vt 0.252027 0.741713
vt 0.681717 0.699524
vt 0.255097 0.738438
vt 0.681860 0.696649
vt 0.685459 0.702345
vt 0.787964 0.856988
vt 0.261650 0.303645
vt 0.100516 0.214057
vt 0.094418 0.211086
vt 0.097054 0.214005
vt 0.045126 0.962090
vt 0.042047 0.965374
vt 0.047850 0.959173
vt 0.265538 0.308035
vt 0.788738 0.861390
vt 0.684171 0.699937
vt 0.264469 0.305020
vt 0.789040 0.858811
vt 0.098894 0.213104
vt 0.906330 0.683937
vt 0.796164 0.669898
vt 0.754322 0.648913
vt 0.732341 0.644821
vt 0.957167 0.659129
vt 0.985664 0.653016
vt 0.250566 0.134030
vt 0.279303 0.240720
vt 0.307348 0.277919
vt 0.315724 0.299109
vt 0.261867 0.077649
vt 0.081325 0.201662
vt 0.622149 0.356915
vt 0.880788 0.048873
vt 0.360806 0.334786
vt 0.585784 0.551405
vt 0.673989 0.293579
vt 0.294172 0.704177
vt 0.367555 0.341284
vt 0.428299 0.399772
vt 0.435799 0.406992
vt 0.654028 0.617113
vt 0.593283 0.558626
vt 0.660777 0.623611
vn 0.000000 1.000000 0.000001
vn 0.000000 1.000000 0.000001
vn 0.000000 1.000000 0.000000
vn 0.000000 1.000000 0.000000
vn -1.000000 0.000011 0.000000
vn -1.000000 0.000011 0.000000
vn -1.000000 0.000004 0.000000
vn -1.000000 0.000003 0.000000
vn 0.004768 0.555614 0.831427
vn 0.004653 0.554061 0.832463
vn 0.004653 0.554060 0.832464
vn 0.004768 0.555614 0.831427
vn 0.000000 -0.554700 -0.832050
vn 0.000000 -0.554700 -0.832050
vn 0.000000 -0.554700 -0.832051
vn 0.000000 -0.554700 -0.832050
vn 0.000000 1.000000 0.000000
vn 0.000000 1.000000 -0.000000
vn 0.000000 1.000000 -0.000000
vn 0.000000 1.000000 0.000000
vn -1.000000 0.000000 0.000000
vn -1.000000 -0.000001 0.000000
vn -1.000000 -0.000001 0.000000
vn -1.000000 0.000000 0.000000
vn 0.004768 0.555614 -0.831427
vn 0.004768 0.555614 -0.831427
vn 0.004653 0.554060 -0.832464
vn 0.004653 0.554060 -0.832463
vn -0.000000 -0.554700 0.832051
vn -0.000000 -0.554700 0.832051
vn -0.000000 -0.554700 0.832050
vn -0.000000 -0.554700 0.832050
vn 0.000000 1.000000 -0.000000
vn 0.000000 1.000000 -0.000000
vn 0.000000 1.000000 -0.000001
vn 0.000000 1.000000 -0.000001
vn -1.000000 -0.000001 0.000000
vn -1.000000 -0.000001 0.000000
vn -1.000000 0.000000 0.000000
vn -1.000000 0.000000 0.000000
vn -1.000000 -0.000000 0.000000
vn -1.000000 -0.000000 0.000000
vn -1.000000 -0.000013 0.000000
vn -1.000000 -0.000013 0.000000
vn 0.000000 1.000000 0.000000
vn 0.000000 1.000000 0.000000
vn 0.000000 1.000000 0.000001
vn 0.000000 1.000000 0.000001
vn 1.000000 -0.000001 0.000002
vn 1.000000 -0.000001 0.000002
vn 1.000000 -0.000001 0.000002
vn 1.000000 -0.000001 0.000002
vn 1.000000 0.000000 0.000000
vn 1.000000 0.000000 0.000000
vn 1.000000 0.000000 0.000000
vn 1.000000 0.000000 0.000000
vn 0.000000 0.451029 -0.892509
vn 0.000000 0.451029 -0.892509
vn 0.000000 0.451029 -0.892509
vn 0.000000 0.451029 -0.892509
vn -0.790836 0.612028 -0.000006
vn -0.790837 0.612027 -0.000004
vn -0.790838 0.612025 -0.000002
vn -0.790836 0.612028 -0.000006
vn -0.790850 0.612010 -0.000004
vn -0.790861 0.611996 -0.000006
vn -0.790861 0.611996 -0.000006
vn -0.790839 0.612024 -0.000002
vn 0.000000 0.489602 0.871946
vn 0.000000 0.489602 0.871946
vn 0.802775 0.594512 0.045925
vn 0.802774 0.594512 0.045925
vn 0.783844 0.620957 -0.001253
vn 0.786848 0.617119 0.005826
vn 0.783860 0.620865 -0.009441
vn 0.790792 0.612085 0.000082
vn 0.790816 0.612054 0.000007
vn 0.790257 0.612775 -0.000769
vn 0.790858 0.612000 0.000008
vn 0.790858 0.612000 0.000008
vn 0.790848 0.612013 -0.000006
vn 0.790850 0.612011 -0.000004
vn -0.790843 0.612020 -0.000001
vn -0.790844 0.612017 -0.000006
vn -0.790844 0.612018 -0.000006
vn -0.790841 0.612022 0.000004
vn -0.000000 0.451028 0.892510
vn -0.000000 0.451028 0.892510
vn -0.000000 0.451028 0.892510
vn -0.000000 0.451028 0.892510
vn 0.000000 0.489601 -0.871947
vn 0.000000 0.489601 -0.871947
vn -0.790847 0.612014 -0.000006
vn -0.790844 0.612018 -0.000001
vn -0.790841 0.612021 0.000003
vn -0.790847 0.612014 -0.000006
vn 0.790833 0.612033 -0.000008
vn 0.786586 0.617438 0.007278
vn 0.790475 0.612494 0.000599
vn 0.790824 0.612044 -0.000005
vn 0.504209 -0.863582 0.000001
vn 0.504209 -0.863582 0.000001
vn 0.504209 -0.863582 0.000001
vn 0.504209 -0.863582 0.000001
vn 0.504223 -0.863573 0.000001
vn 0.504223 -0.863573 0.000001
vn 0.504223 -0.863573 0.000001
vn 0.504223 -0.863573 0.000001
vn 0.786892 0.617088 0.001910
vn 0.788215 0.615398 -0.001634
vn 0.790817 0.612053 0.000040
vn 0.790833 0.612032 -0.000001
vn 0.544257 -0.465802 0.697720
vn 0.622515 -0.434389 0.650985
vn 0.701980 -0.396896 0.591353
vn 0.544257 -0.465802 0.697720
vn 0.830494 -0.308685 0.463674
vn 0.830438 -0.309496 0.463233
vn 0.878964 -0.476843 0.006531
vn 0.906124 -0.422967 0.006232
vn 0.908433 -0.418015 -0.003532
vn 0.882345 -0.470595 -0.002760
vn 0.986848 -0.161502 0.006999
vn 0.986949 -0.160946 0.005251
vn 0.981212 -0.192921 0.002144
vn 0.910130 -0.414286 -0.005628
vn 0.921018 -0.389457 0.006979
vn 0.981345 -0.192222 0.003698
vn 0.649981 -0.484376 -0.585580
vn 0.895955 -0.444141 0.001869
vn 0.863479 0.280647 0.419095
vn 0.821240 0.317531 0.474067
vn 0.823309 0.315865 0.471584
vn 0.863479 0.280647 0.419095
vn 0.421245 0.505592 0.752948
vn 0.407372 0.509142 0.758170
vn 1.000000 0.000012 0.000007
vn 1.000000 0.000024 0.000015
vn 1.000000 0.000024 0.000015
vn 0.999945 0.005837 -0.008694
vn 0.999506 0.017483 -0.026117
vn 1.000000 0.000000 0.000000
vn 1.000000 -0.000005 0.000000
vn 1.000000 -0.000008 0.000000
vn 1.000000 -0.000008 0.000000
vn 1.000000 -0.000005 0.000000
vn 1.000000 -0.000010 0.000000
vn 1.000000 -0.000010 0.000000
vn 0.420002 0.505852 -0.753467
vn 0.405703 0.509501 -0.758824
vn 0.265769 0.537722 -0.800138
vn 0.265769 0.537722 -0.800138
vn 0.043990 -0.559661 0.827554
vn 0.043990 -0.559661 0.827554
vn 0.043990 -0.559661 0.827554
vn 0.043990 -0.559661 0.827553
vn 0.267957 0.537400 0.799625
vn 0.267957 0.537400 0.799625
vn 0.046335 -0.559531 -0.827513
vn 0.046335 -0.559531 -0.827513
vn 0.046335 -0.559531 -0.827513
vn 0.046335 -0.559531 -0.827513
vn 0.842585 -0.298582 -0.448219
vn 0.631120 -0.430869 -0.645011
vn 0.709994 -0.392363 -0.584773
vn 0.842552 -0.299155 -0.447899
vn 0.550180 -0.464026 -0.694249
vn 0.835172 0.305972 -0.457022
vn 0.837270 0.304191 -0.454364
vn 0.785661 -0.564202 0.253797
vn 0.843518 -0.468602 0.262469
vn 0.825630 -0.458779 -0.328417
vn 0.887328 -0.344818 -0.306185
vn 0.852241 -0.353155 -0.385963
vn 0.857140 -0.358854 -0.369505
vn 0.865849 -0.401829 -0.298059
vn 0.847715 -0.361259 -0.388422
vn 0.808535 -0.488248 0.328458
vn 0.800168 -0.509651 0.316207
vn 0.816081 -0.491040 0.304780
vn 0.784384 -0.551967 0.282975
vn 0.752060 -0.604828 0.261894
vn 0.800084 0.598852 -0.035237
vn 0.800084 0.598852 -0.035237
vn 0.790976 0.611847 -0.000361
vn 0.790976 0.611847 -0.000361
s 1
g V_Sign
usemtl initialShadingGroup
f 19/85/1 20/2/2 21/3/3 22/81/4
s 2
f 5/98/5 7/92/6 17/7/7 18/96/8
s 3
f 2/87/9 4/84/10 6/11/11 8/91/12
s off
f 7/6/13 5/5/14 3/13/15 1/88/16
s 4
f 27/79/17 28/75/18 29/17/19 30/18/20
s 5
f 11/89/21 16/93/22 17/7/23 7/92/24
s 6
f 2/87/25 8/91/26 12/21/27 10/78/28
s off
f 7/6/29 1/88/30 9/80/31 11/19/32
s 4
f 32/24/33 31/76/34 33/77/35 34/27/36
s 5
f 14/28/37 13/94/38 12/95/39 8/12/40
s 2
f 15/97/41 14/28/42 8/12/43 6/90/44
s 1
f 24/82/45 23/32/46 25/33/47 26/83/48
s off
f 36/35/49 35/36/50 37/37/51 38/38/52
s 4
f 29/17/19 28/75/18 31/76/34 32/24/33
s 5
f 17/7/23 16/93/22 13/94/38 14/28/37
s 2
f 18/96/8 17/7/7 14/28/42 15/97/41
s 1
f 22/81/4 21/3/3 23/32/46 24/82/45
s off
f 35/36/53 39/39/54 40/40/55 37/37/56
f 3/13/57 5/5/58 20/2/59 19/85/60
s 7
f 5/5/61 18/8/62 21/3/63 20/2/64
f 15/30/65 6/11/66 25/33/67 23/32/68
s 3
f 6/11/11 4/84/10 26/83/69 25/33/70
s 8
f 4/10/71 53/41/72 55/42/73 26/34/74
s 7
f 18/8/62 15/30/65 23/32/68 21/3/63
s 8
f 52/43/75 65/44/76 22/4/77 24/31/78
s 10
f 9/23/79 59/45/80 61/46/81 27/15/82
s 11
f 16/20/83 11/19/84 30/18/85 29/17/86
s off
f 11/19/87 9/80/88 27/79/89 30/18/90
s 6
f 10/78/28 12/21/27 34/27/91 33/77/92
s 11
f 12/21/93 13/29/94 32/24/95 34/27/96
s 10
f 58/47/97 47/48/98 31/25/99 28/16/100
s 11
f 13/29/94 16/20/83 29/17/86 32/24/95
s off
f 44/49/101 56/50/102 36/35/103 38/38/104
f 62/51/105 50/52/106 40/40/107 39/39/108
s 10
f 47/48/98 49/53/109 33/26/110 31/25/99
s 8
f 65/44/76 67/54/111 19/1/112 22/4/77
s 13
f 43/55/113 42/56/114 45/57/115 44/49/116
f 42/56/114 41/58/117 46/59/118 45/57/115
f 44/49/119 48/60/120 57/61/121 56/50/122
f 48/60/120 47/48/123 58/47/124 57/61/121
s 15
f 52/43/125 51/62/126 66/63/127 65/44/128
f 51/62/126 50/52/129 62/51/130 66/63/127
s 16
f 64/64/131 63/65/132 69/66/133 68/67/134
f 63/65/132 62/51/135 70/68/136 69/66/133
s 17
f 1/14/137 3/86/138 64/64/139 68/67/140
f 1/14/137 68/67/140 59/45/141 9/23/142
s 18
f 46/59/143 41/58/144 2/9/145 10/22/146
f 41/58/144 53/41/147 4/10/148 2/9/145
s 17
f 56/50/149 70/68/150 35/36/151 36/35/152
s off
f 43/55/153 44/49/154 38/38/155 37/37/156
s 16
f 70/68/136 62/51/135 39/39/157 35/36/158
s off
f 50/52/159 43/55/160 37/37/161 40/40/162
s 15
f 41/58/163 42/56/164 54/69/165 53/41/166
f 42/56/164 43/55/167 50/52/129 54/69/165
s 17
f 56/50/149 60/70/168 69/66/169 70/68/150
f 60/70/168 59/45/141 68/67/140 69/66/169
s 13
f 48/60/120 44/49/119 45/57/115 71/71/170
f 45/57/115 46/59/118 49/53/171 71/71/170
f 49/53/171 47/48/123 48/60/120 71/71/170
s 15
f 54/69/165 50/52/129 51/62/126 72/72/172
f 51/62/126 52/43/125 55/42/173 72/72/172
f 55/42/173 53/41/166 54/69/165 72/72/172
s 13
f 60/70/174 56/50/122 57/61/121 73/73/175
f 57/61/121 58/47/124 61/46/176 73/73/175
f 61/46/176 59/45/177 60/70/174 73/73/175
s 15
f 66/63/127 62/51/130 63/65/178 74/74/179
f 63/65/178 64/64/180 67/54/181 74/74/179
f 67/54/181 65/44/182 66/63/127 74/74/179
s 10
f 27/15/82 61/46/81 58/47/97 28/16/100
f 33/26/110 49/53/109 46/59/183 10/22/184
s 8
f 26/34/74 55/42/73 52/43/75 24/31/78
f 19/1/112 67/54/111 64/64/185 3/86/186
