# This file uses centimeters as units for non-parametric coordinates.

mtllib Door.mtl
g default
v 26.153807 -1.412529 314.444641
v -25.769028 -1.412529 314.444641
v -25.769028 229.687500 314.444641
v 26.153807 229.687500 314.444641
v 78.076675 -1.412529 314.444641
v 78.076675 229.687500 314.444641
v -25.769028 -1.412529 308.984863
v 26.153807 -1.412529 308.984863
v -25.769028 229.687500 308.984863
v 26.153807 229.687500 308.984863
v 78.076675 -1.412529 308.984863
v 78.076675 229.687500 308.984863
v -15.667952 9.893712 308.984833
v 26.153847 9.893712 308.984863
v -15.667952 218.381287 308.984833
v 26.153847 218.381287 308.984863
v 67.975601 9.893712 308.984863
v 67.975601 218.381287 308.984863
v -15.667953 9.893712 310.627960
v 26.153847 9.893712 310.627991
v -15.667953 218.381287 310.627960
v 26.153847 218.381287 310.627991
v 67.975609 9.893712 310.627991
v 67.975609 218.381287 310.627991
vt 0.256626 0.082522
vt 0.419886 0.095593
vt 0.421078 0.913169
vt 0.253181 0.925370
vt 0.088728 0.094738
vt 0.089924 0.912300
vt 0.753741 0.051548
vt 0.756789 0.934975
vt 0.558303 0.935660
vt 0.555255 0.052232
vt 0.952227 0.050863
vt 0.955275 0.934290
vt 0.466239 0.048460
vt 0.257132 0.031864
vt 0.467510 0.960104
vt 0.252660 0.976028
vt 0.042294 0.047811
vt 0.043570 0.959427
vt 0.425444 0.092467
vt 0.256693 0.076055
vt 0.426731 0.916168
vt 0.253100 0.931837
vt 0.083074 0.091741
vt 0.084364 0.915424
vt 0.952155 0.029992
vt 0.976146 0.934218
vt 0.756861 0.955847
vt 0.753669 0.030676
vt 0.558375 0.956531
vt 0.534384 0.052304
vt 0.955347 0.955162
vt 0.973098 0.050791
vt 0.537432 0.935732
vt 0.555183 0.031361
vn 0.000000 0.000000 -1.000000
vn 0.000001 0.000000 -1.000000
vn 0.000001 0.000000 -1.000000
vn 0.000000 0.000000 -1.000000
vn 0.000000 0.000000 -1.000000
vn 0.000000 0.000000 -1.000000
vn 0.000000 0.000000 1.000000
vn 0.000000 0.000000 1.000000
vn 0.000000 0.000000 1.000000
vn 0.000000 0.000000 1.000000
vn 0.000000 0.000000 1.000000
vn 0.000000 0.000000 1.000000
vn 0.000000 -1.000000 0.000000
vn 0.000000 -1.000000 0.000000
vn 0.000000 -1.000000 0.000000
vn 0.000000 -1.000000 0.000000
vn -1.000000 0.000000 0.000000
vn -1.000000 0.000000 0.000000
vn -1.000000 0.000000 0.000000
vn -1.000000 0.000000 0.000000
vn 0.000000 1.000000 0.000000
vn 0.000000 1.000000 0.000000
vn 0.000000 1.000000 0.000000
vn 0.000000 1.000000 0.000000
vn 0.000000 -1.000000 0.000000
vn 0.000000 -1.000000 0.000000
vn 0.000000 1.000000 0.000000
vn 0.000000 1.000000 0.000000
vn 1.000000 0.000000 0.000000
vn 1.000000 0.000000 0.000000
vn 1.000000 0.000000 0.000000
vn 1.000000 0.000000 0.000000
vn 0.000000 -0.000001 -1.000000
vn -0.000004 -0.000000 -1.000000
vn -0.000004 -0.000000 -1.000000
vn 0.000000 -0.000001 -1.000000
vn -0.000004 0.000000 -1.000000
vn -0.000004 0.000000 -1.000000
vn 0.000000 0.000001 -1.000000
vn 0.000000 0.000001 -1.000000
vn -0.000001 0.000000 -1.000000
vn -0.000001 0.000000 -1.000000
vn -0.000001 0.000000 -1.000000
vn -0.000001 0.000000 -1.000000
vn 0.000000 1.000000 0.000000
vn 0.000000 1.000000 0.000000
vn 0.000000 1.000000 0.000000
vn 0.000000 1.000000 0.000000
vn 1.000000 0.000000 0.000001
vn 1.000000 0.000000 0.000001
vn 1.000000 0.000000 0.000001
vn 1.000000 0.000000 0.000001
vn 0.000000 -1.000000 -0.000003
vn 0.000000 -1.000000 -0.000009
vn 0.000000 -1.000000 -0.000009
vn 0.000000 -1.000000 -0.000003
vn 0.000000 1.000000 0.000000
vn 0.000000 1.000000 0.000000
vn 0.000000 -1.000000 -0.000014
vn 0.000000 -1.000000 -0.000014
vn -1.000000 0.000000 0.000005
vn -1.000000 0.000000 0.000005
vn -1.000000 0.000000 0.000005
vn -1.000000 0.000000 0.000005
s 1
g Door2
usemtl initialShadingGroup
f 20/1/1 19/2/2 21/3/3 22/4/4
f 23/5/5 20/1/1 22/4/4 24/6/6
s 2
f 1/7/7 4/8/8 3/9/9 2/10/10
f 5/11/11 6/12/12 4/8/8 1/7/7
s 3
f 1/7/13 2/10/14 7/34/15 8/28/16
s off
f 2/10/17 3/9/18 9/33/19 7/30/20
s 4
f 3/9/21 4/8/22 10/27/23 9/29/24
s 3
f 5/11/25 1/7/13 8/28/16 11/25/26
s 4
f 4/8/22 6/12/27 12/31/28 10/27/23
s off
f 6/12/29 5/11/30 11/32/31 12/26/32
s 5
f 8/14/33 7/13/34 13/19/35 14/20/36
f 7/13/34 9/15/37 15/21/38 13/19/35
f 9/15/37 10/16/39 16/22/40 15/21/38
f 11/17/41 8/14/33 14/20/36 17/23/42
f 10/16/39 12/18/43 18/24/44 16/22/40
f 12/18/43 11/17/41 17/23/42 18/24/44
s 6
f 14/20/45 13/19/46 19/2/47 20/1/48
s off
f 13/19/49 15/21/50 21/3/51 19/2/52
s 7
f 15/21/53 16/22/54 22/4/55 21/3/56
s 6
f 17/23/57 14/20/45 20/1/48 23/5/58
s 7
f 16/22/54 18/24/59 24/6/60 22/4/55
s off
f 18/24/61 17/23/62 23/5/63 24/6/64
